<svg width="1271" height="149" viewBox="0 0 1271 149" fill="none" xmlns="http://www.w3.org/2000/svg">
<path d="M75.25 96L74.6415 96.7937L74.65 96.8L75.25 96ZM54.1562 86.625L53.8455 87.5755L53.851 87.5773L54.1562 86.625ZM30.0352 76.8594L29.5598 77.7392L29.5611 77.7398L30.0352 76.8594ZM12.2617 21.0977L11.4503 20.5131L11.4492 20.5147L12.2617 21.0977ZM30.9141 6.9375L30.53 6.0142L30.5273 6.01531L30.9141 6.9375ZM85.4062 7.42578L84.9829 8.3318L84.9891 8.33461L85.4062 7.42578ZM103.863 22.9531L103.025 23.4984L103.029 23.5041L103.863 22.9531ZM110.504 45.8047V46.8047H111.504V45.8047H110.504ZM81.207 45.8047H80.207V46.8047H81.207V45.8047ZM75.0547 30.668L74.3903 31.4154L74.397 31.4213L75.0547 30.668ZM41.0703 29.7891L41.6724 30.5875L41.6807 30.5812L41.0703 29.7891ZM42.0469 53.3242L41.4868 54.1527L41.4922 54.1563L42.0469 53.3242ZM62.6523 62.1133L62.3631 63.0705L62.3643 63.0709L62.6523 62.1133ZM96.5391 137.504L97.1382 138.305L97.1417 138.302L96.5391 137.504ZM29.0586 141.996L28.6488 142.908L28.6543 142.911L29.0586 141.996ZM8.45312 125.492L7.62345 126.05L7.62706 126.056L8.45312 125.492ZM1.42188 101.273V100.273H0.421875V101.273H1.42188ZM30.8164 101.273H31.8164V100.273H30.8164V101.273ZM75.25 120.609L75.8326 121.422L75.8414 121.416L75.25 120.609ZM82.1094 108.695C82.1094 102.895 80.0441 98.3456 75.85 95.2L74.65 96.8C78.2684 99.5138 80.1094 103.428 80.1094 108.695H82.1094ZM75.8584 95.2064C71.805 92.0988 64.6297 88.9318 54.4615 85.6727L53.851 87.5773C63.9953 90.8286 70.8825 93.9116 74.6416 96.7936L75.8584 95.2064ZM54.467 85.6745C44.3384 82.3633 36.3603 79.1295 30.5093 75.9789L29.5611 77.7398C35.559 80.9695 43.6616 84.2461 53.8455 87.5755L54.467 85.6745ZM30.5105 75.9796C14.5955 67.3803 6.81641 55.9225 6.81641 41.6055H4.81641C4.81641 56.8458 13.1831 68.8905 29.5598 77.7392L30.5105 75.9796ZM6.81641 41.6055C6.81641 34.1229 8.90465 27.4927 13.0743 21.6806L11.4492 20.5147C7.02504 26.6817 4.81641 33.7234 4.81641 41.6055H6.81641ZM13.0731 21.6822C17.3099 15.8013 23.368 11.1863 31.3008 7.85969L30.5273 6.01531C22.3143 9.45949 15.9375 14.2847 11.4503 20.5131L13.0731 21.6822ZM31.2982 7.8608C39.2981 4.53282 48.2795 2.85938 58.2578 2.85938V0.859375C48.0538 0.859375 38.8061 2.57135 30.53 6.0142L31.2982 7.8608ZM58.2578 2.85938C68.2909 2.85938 77.1922 4.69183 84.983 8.33177L85.8295 6.51979C77.7349 2.73785 68.5373 0.859375 58.2578 0.859375V2.85938ZM84.9891 8.33461C92.7764 11.9091 98.7757 16.9658 103.025 23.4984L104.702 22.4079C100.227 15.529 93.9215 10.2341 85.8234 6.51695L84.9891 8.33461ZM103.029 23.5041C107.341 30.0361 109.504 37.4593 109.504 45.8047H111.504C111.504 37.0928 109.24 29.2816 104.698 22.4022L103.029 23.5041ZM110.504 44.8047H81.207V46.8047H110.504V44.8047ZM82.207 45.8047C82.207 39.0674 80.0741 33.7225 75.7123 29.9147L74.397 31.4213C78.2384 34.7749 80.207 39.5211 80.207 45.8047H82.207ZM75.7191 29.9206C71.3783 26.0622 65.3491 24.1992 57.7695 24.1992V26.1992C65.0337 26.1992 70.5279 27.9821 74.3903 31.4154L75.7191 29.9206ZM57.7695 24.1992C50.4792 24.1992 44.6673 25.7552 40.46 28.9969L41.6807 30.5812C45.4161 27.7031 50.737 26.1992 57.7695 26.1992V24.1992ZM40.4682 28.9906C36.2478 32.1732 34.1133 36.4394 34.1133 41.7031H36.1133C36.1133 37.071 37.9501 33.3945 41.6724 30.5875L40.4682 28.9906ZM34.1133 41.7031C34.1133 46.7292 36.6545 50.8857 41.4868 54.1527L42.6069 52.4958C38.1945 49.5127 36.1133 45.9219 36.1133 41.7031H34.1133ZM41.4922 54.1563C46.2983 57.3603 53.274 60.3242 62.3631 63.0705L62.9416 61.156C53.9317 58.4336 47.1705 55.5381 42.6016 52.4922L41.4922 54.1563ZM62.3643 63.0709C78.9639 68.0637 90.9293 74.2219 98.3803 81.4819L99.776 80.0494C91.9926 72.4656 79.6742 66.1889 62.9404 61.1557L62.3643 63.0709ZM98.3803 81.4819C105.796 88.7071 109.504 97.6897 109.504 108.5H111.504C111.504 97.1749 107.595 87.6679 99.776 80.0494L98.3803 81.4819ZM109.504 108.5C109.504 120.511 104.981 129.875 95.9364 136.706L97.1417 138.302C106.717 131.07 111.504 121.098 111.504 108.5H109.504ZM95.94 136.703C86.8551 143.501 74.5563 146.953 58.9414 146.953V148.953C74.8369 148.953 87.6032 145.439 97.1382 138.305L95.94 136.703ZM58.9414 146.953C48.1273 146.953 38.3062 144.99 29.4629 141.081L28.6543 142.911C37.7798 146.944 47.8805 148.953 58.9414 148.953V146.953ZM29.4684 141.084C20.6236 137.11 13.9114 131.718 9.27919 124.929L7.62706 126.056C12.5 133.198 19.5248 138.809 28.6488 142.908L29.4684 141.084ZM9.28278 124.934C4.71666 118.148 2.42188 110.274 2.42188 101.273H0.421875C0.421875 110.633 2.81459 118.904 7.62347 126.05L9.28278 124.934ZM1.42188 102.273H30.8164V100.273H1.42188V102.273ZM29.8164 101.273C29.8164 109.324 32.2301 115.528 37.2059 119.692C42.1476 123.827 49.4514 125.809 58.9414 125.809V123.809C49.6814 123.809 42.9227 121.868 38.4894 118.158C34.0903 114.477 31.8164 108.913 31.8164 101.273H29.8164ZM58.9414 125.809C66.0265 125.809 71.6956 124.387 75.8325 121.422L74.6675 119.797C70.9919 122.431 65.7886 123.809 58.9414 123.809V125.809ZM75.8414 121.416C80.0187 118.352 82.1094 114.074 82.1094 108.695H80.1094C80.1094 113.473 78.2938 117.137 74.6586 119.803L75.8414 121.416ZM239.723 95.9023V94.9023H238.723V95.9023H239.723ZM239.723 146V147H240.723V146H239.723ZM210.426 146H209.426V147H210.426V146ZM210.426 3.8125V2.8125H209.426V3.8125H210.426ZM294.02 9.67188L293.584 10.572L293.587 10.5734L294.02 9.67188ZM312.77 26.3711L311.913 26.8879L311.915 26.8913L312.77 26.3711ZM304.957 83.8906L305.601 84.6554L305.602 84.655L304.957 83.8906ZM239.723 72.1719H238.723V73.1719H239.723V72.1719ZM283.57 66.7031L282.906 65.9557L282.9 65.961L283.57 66.7031ZM266.578 27.543L266.596 26.5431L266.587 26.543H266.578V27.543ZM239.723 27.543V26.543H238.723V27.543H239.723ZM238.723 95.9023V146H240.723V95.9023H238.723ZM239.723 145H210.426V147H239.723V145ZM211.426 146V3.8125H209.426V146H211.426ZM210.426 4.8125H265.895V2.8125H210.426V4.8125ZM265.895 4.8125C276.449 4.8125 285.67 6.74285 293.584 10.572L294.455 8.77172C286.223 4.7884 276.694 2.8125 265.895 2.8125V4.8125ZM293.587 10.5734C301.562 14.4015 307.659 19.8398 311.913 26.8879L313.626 25.8543C309.156 18.4493 302.753 12.7548 294.452 8.77035L293.587 10.5734ZM311.915 26.8913C316.173 33.8814 318.312 41.8687 318.312 50.8828H320.312C320.312 41.5376 318.09 33.1837 313.624 25.8509L311.915 26.8913ZM318.312 50.8828C318.312 64.5578 313.63 75.2662 304.312 83.1263L305.602 84.655C315.424 76.3692 320.312 65.0724 320.312 50.8828H318.312ZM304.313 83.1258C295.043 90.9351 282.117 94.9023 265.406 94.9023V96.9023C282.42 96.9023 295.86 92.8618 305.601 84.6554L304.313 83.1258ZM265.406 94.9023H239.723V96.9023H265.406V94.9023ZM239.723 73.1719H265.895V71.1719H239.723V73.1719ZM265.895 73.1719C273.785 73.1719 279.955 71.3158 284.241 67.4452L282.9 65.961C279.112 69.3821 273.499 71.1719 265.895 71.1719V73.1719ZM284.235 67.4505C288.598 63.5717 290.723 58.0624 290.723 51.0781H288.723C288.723 57.6355 286.745 62.5429 282.906 65.9557L284.235 67.4505ZM290.723 51.0781C290.723 43.9024 288.603 38.0078 284.294 33.4931L282.847 34.8741C286.741 38.9532 288.723 44.3216 288.723 51.0781H290.723ZM284.294 33.4931C279.969 28.9626 274.028 26.677 266.596 26.5431L266.56 28.5428C273.581 28.6693 278.968 30.8109 282.847 34.8741L284.294 33.4931ZM266.578 26.543H239.723V28.543H266.578V26.543ZM238.723 27.543V72.1719H240.723V27.543H238.723ZM505.074 84.3789V85.3789H506.074V84.3789H505.074ZM448.824 84.3789V83.3789H447.824V84.3789H448.824ZM448.824 122.465H447.824V123.465H448.824V122.465ZM514.84 122.465H515.84V121.465H514.84V122.465ZM514.84 146V147H515.84V146H514.84ZM419.527 146H418.527V147H419.527V146ZM419.527 3.8125V2.8125H418.527V3.8125H419.527ZM514.645 3.8125H515.645V2.8125H514.645V3.8125ZM514.645 27.543V28.543H515.645V27.543H514.645ZM448.824 27.543V26.543H447.824V27.543H448.824ZM448.824 61.4297H447.824V62.4297H448.824V61.4297ZM505.074 61.4297H506.074V60.4297H505.074V61.4297ZM505.074 83.3789H448.824V85.3789H505.074V83.3789ZM447.824 84.3789V122.465H449.824V84.3789H447.824ZM448.824 123.465H514.84V121.465H448.824V123.465ZM513.84 122.465V146H515.84V122.465H513.84ZM514.84 145H419.527V147H514.84V145ZM420.527 146V3.8125H418.527V146H420.527ZM419.527 4.8125H514.645V2.8125H419.527V4.8125ZM513.645 3.8125V27.543H515.645V3.8125H513.645ZM514.645 26.543H448.824V28.543H514.645V26.543ZM447.824 27.543V61.4297H449.824V27.543H447.824ZM448.824 62.4297H505.074V60.4297H448.824V62.4297ZM504.074 61.4297V84.3789H506.074V61.4297H504.074ZM723.648 98.6367L724.646 98.7089L724.723 97.6367H723.648V98.6367ZM706.656 134.77L706.004 134.011L706.002 134.013L706.656 134.77ZM623.355 129.594L622.592 130.24L622.596 130.244L623.355 129.594ZM614.957 34.1836L614.049 33.7638L614.957 34.1836ZM635.562 10.2578L636.09 11.1076L636.091 11.1065L635.562 10.2578ZM706.461 15.043L705.802 15.7949L706.461 15.043ZM723.844 52.0547V53.0547H724.947L724.839 51.9568L723.844 52.0547ZM694.547 52.0547L693.55 52.1325L693.622 53.0547H694.547V52.0547ZM686.832 32.1328L686.141 32.8559L686.147 32.8612L686.152 32.8664L686.832 32.1328ZM644.84 36.4297L644.018 35.8593L644.017 35.8609L644.84 36.4297ZM637.418 68.9492L636.418 68.9404V68.9492H637.418ZM644.352 113.383L643.514 113.929L643.517 113.934L644.352 113.383ZM686.637 117.875L687.316 118.609L687.317 118.608L686.637 117.875ZM694.352 98.6367V97.6367H693.424L693.354 98.5617L694.352 98.6367ZM722.651 98.5646C721.561 113.638 715.995 125.42 706.004 134.011L707.308 135.528C717.76 126.541 723.523 114.234 724.646 98.7089L722.651 98.5646ZM706.002 134.013C696.068 142.61 682.908 146.953 666.422 146.953V148.953C683.269 148.953 696.932 144.507 707.311 135.526L706.002 134.013ZM666.422 146.953C648.442 146.953 634.381 140.93 624.115 128.943L622.596 130.244C633.294 142.736 647.943 148.953 666.422 148.953V146.953ZM624.119 128.948C613.899 116.876 608.73 100.269 608.73 79.0078H606.73C606.73 100.585 611.979 117.703 622.592 130.24L624.119 128.948ZM608.73 79.0078V70.3164H606.73V79.0078H608.73ZM608.73 70.3164C608.73 56.7621 611.118 44.8657 615.865 34.6034L614.049 33.7638C609.16 44.3348 606.73 56.5269 606.73 70.3164H608.73ZM615.865 34.6034C620.608 24.3469 627.352 16.5288 636.09 11.1075L635.035 9.40808C625.934 15.0546 618.941 23.187 614.049 33.7638L615.865 34.6034ZM636.091 11.1065C644.899 5.61791 655.128 2.85938 666.812 2.85938V0.859375C654.8 0.859375 644.195 3.6998 635.034 9.40912L636.091 11.1065ZM666.812 2.85938C683.034 2.85938 695.998 7.20036 705.802 15.7949L707.12 14.291C696.872 5.30745 683.403 0.859375 666.812 0.859375V2.85938ZM705.802 15.7949C715.6 24.3846 721.306 36.4671 722.849 52.1526L724.839 51.9568C723.257 35.8715 717.374 23.2795 707.12 14.291L705.802 15.7949ZM723.844 51.0547H694.547V53.0547H723.844V51.0547ZM695.544 51.9769C694.818 42.6744 692.2 35.7425 687.512 31.3993L686.152 32.8664C690.319 36.7263 692.843 43.0756 693.55 52.1325L695.544 51.9769ZM687.523 31.4097C682.901 26.995 675.93 24.8828 666.812 24.8828V26.8828C675.664 26.8828 682.039 28.9373 686.141 32.8559L687.523 31.4097ZM666.812 24.8828C656.773 24.8828 649.117 28.5178 644.018 35.8593L645.661 37.0001C650.329 30.279 657.321 26.8828 666.812 26.8828V24.8828ZM644.017 35.8609C639.029 43.0736 636.549 54.1571 636.418 68.9404L638.418 68.9581C638.548 54.3142 641.015 43.7181 645.662 36.9985L644.017 35.8609ZM636.418 68.9492V79.6914H638.418V68.9492H636.418ZM636.418 79.6914C636.418 95.1135 638.73 106.585 643.514 113.929L645.189 112.837C640.728 105.988 638.418 94.9985 638.418 79.6914H636.418ZM643.517 113.934C648.425 121.364 656.13 125.027 666.422 125.027V123.027C656.662 123.027 649.653 119.594 645.186 112.832L643.517 113.934ZM666.422 125.027C675.6 125.027 682.631 122.95 687.316 118.609L685.957 117.141C681.789 121.003 675.342 123.027 666.422 123.027V125.027ZM687.317 118.608C692.059 114.21 694.687 107.517 695.349 98.7117L693.354 98.5617C692.714 107.074 690.199 113.207 685.957 117.142L687.317 118.608ZM694.352 99.6367H723.648V97.6367H694.352V99.6367ZM854.039 146V147H855.039V146H854.039ZM824.742 146H823.742V147H824.742V146ZM824.742 3.8125V2.8125H823.742V3.8125H824.742ZM854.039 3.8125H855.039V2.8125H854.039V3.8125ZM854.039 145H824.742V147H854.039V145ZM825.742 146V3.8125H823.742V146H825.742ZM824.742 4.8125H854.039V2.8125H824.742V4.8125ZM853.039 3.8125V146H855.039V3.8125H853.039ZM1043.32 116.703L1044.26 116.384L1044.03 115.703H1043.32V116.703ZM991.949 116.703V115.703H991.228L991.001 116.387L991.949 116.703ZM982.184 146V147H982.904L983.132 146.316L982.184 146ZM951.031 146L950.094 145.651L949.592 147H951.031V146ZM1003.96 3.8125V2.8125H1003.27L1003.02 3.46363L1003.96 3.8125ZM1031.11 3.8125L1032.05 3.46194L1031.8 2.8125H1031.11V3.8125ZM1084.33 146V147H1085.77L1085.27 145.649L1084.33 146ZM1053.18 146L1052.23 146.319L1052.46 147H1053.18V146ZM999.859 92.9727L998.91 92.6575L998.474 93.9727H999.859V92.9727ZM1035.41 92.9727V93.9727H1036.8L1036.35 92.6543L1035.41 92.9727ZM1017.54 39.75L1018.48 39.4317L1017.53 36.5929L1016.59 39.4348L1017.54 39.75ZM1043.32 115.703H991.949V117.703H1043.32V115.703ZM991.001 116.387L981.235 145.684L983.132 146.316L992.898 117.019L991.001 116.387ZM982.184 145H951.031V147H982.184V145ZM951.968 146.349L1004.9 4.16137L1003.02 3.46363L950.094 145.651L951.968 146.349ZM1003.96 4.8125H1031.11V2.8125H1003.96V4.8125ZM1030.17 4.16306L1083.4 146.351L1085.27 145.649L1032.05 3.46194L1030.17 4.16306ZM1084.33 145H1053.18V147H1084.33V145ZM1054.13 145.681L1044.26 116.384L1042.37 117.022L1052.23 146.319L1054.13 145.681ZM999.859 93.9727H1035.41V91.9727H999.859V93.9727ZM1036.35 92.6543L1018.48 39.4317L1016.59 40.0683L1034.46 93.291L1036.35 92.6543ZM1016.59 39.4348L998.91 92.6575L1000.81 93.2878L1018.48 40.0652L1016.59 39.4348ZM1206.91 122.465H1205.91V123.465H1206.91V122.465ZM1269.12 122.465H1270.12V121.465H1269.12V122.465ZM1269.12 146V147H1270.12V146H1269.12ZM1177.61 146H1176.61V147H1177.61V146ZM1177.61 3.8125V2.8125H1176.61V3.8125H1177.61ZM1206.91 3.8125H1207.91V2.8125H1206.91V3.8125ZM1206.91 123.465H1269.12V121.465H1206.91V123.465ZM1268.12 122.465V146H1270.12V122.465H1268.12ZM1269.12 145H1177.61V147H1269.12V145ZM1178.61 146V3.8125H1176.61V146H1178.61ZM1177.61 4.8125H1206.91V2.8125H1177.61V4.8125ZM1205.91 3.8125V122.465H1207.91V3.8125H1205.91Z" fill="white" fill-opacity="0.1"/>
</svg>
