<svg width="1280" height="149" viewBox="0 0 1280 149" fill="none" xmlns="http://www.w3.org/2000/svg">
<path d="M93.9925 116.703L94.9402 116.384L94.711 115.703H93.9925V116.703ZM42.6253 116.703V115.703H41.9045L41.6766 116.387L42.6253 116.703ZM32.8597 146V147H33.5804L33.8084 146.316L32.8597 146ZM1.70734 146L0.770164 145.651L0.268045 147H1.70734V146ZM54.637 3.8125V2.8125H53.9422L53.6999 3.46363L54.637 3.8125ZM81.7855 3.8125L82.722 3.46194L82.4789 2.8125H81.7855V3.8125ZM135.008 146V147H136.45L135.945 145.649L135.008 146ZM103.856 146L102.908 146.319L103.137 147H103.856V146ZM50.5355 92.9727L49.5864 92.6575L49.1496 93.9727H50.5355V92.9727ZM86.0823 92.9727V93.9727H87.473L87.0303 92.6543L86.0823 92.9727ZM68.2112 39.75L69.1592 39.4317L68.206 36.5929L67.2622 39.4348L68.2112 39.75ZM93.9925 115.703H42.6253V117.703H93.9925V115.703ZM41.6766 116.387L31.911 145.684L33.8084 146.316L43.574 117.019L41.6766 116.387ZM32.8597 145H1.70734V147H32.8597V145ZM2.64451 146.349L55.5742 4.16137L53.6999 3.46363L0.770164 145.651L2.64451 146.349ZM54.637 4.8125H81.7855V2.8125H54.637V4.8125ZM80.8489 4.16306L134.072 146.351L135.945 145.649L82.722 3.46194L80.8489 4.16306ZM135.008 145H103.856V147H135.008V145ZM104.804 145.681L94.9402 116.384L93.0448 117.022L102.908 146.319L104.804 145.681ZM50.5355 93.9727H86.0823V91.9727H50.5355V93.9727ZM87.0303 92.6543L69.1592 39.4317L67.2633 40.0683L85.1344 93.291L87.0303 92.6543ZM67.2622 39.4348L49.5864 92.6575L51.4845 93.2878L69.1603 40.0652L67.2622 39.4348ZM358.641 128.031L359.409 128.672L359.641 128.394V128.031H358.641ZM336.278 142.777L336.615 143.719L336.62 143.717L336.278 142.777ZM271.825 139.945L271.32 140.809L271.327 140.813L271.825 139.945ZM250.34 116.508L249.442 116.948L249.445 116.953L250.34 116.508ZM242.625 80.4727L241.625 80.4727L241.625 80.4821L242.625 80.4727ZM249.754 33.9883L248.847 33.5685L248.845 33.571L249.754 33.9883ZM270.457 10.1602L270.977 11.0144L270.979 11.0133L270.457 10.1602ZM341.746 13.9688L341.099 14.731L341.102 14.7335L341.746 13.9688ZM358.641 49.0273V50.0273H359.762L359.634 48.9137L358.641 49.0273ZM330.125 49.0273L329.138 49.1853L329.273 50.0273H330.125V49.0273ZM321.434 31.1562L320.785 31.9171L320.79 31.9217L321.434 31.1562ZM280.321 36.7227L279.5 36.1516L280.321 36.7227ZM272.41 70.1211L271.41 70.1167V70.1211H272.41ZM329.344 117.387L330.051 118.094L330.344 117.801V117.387H329.344ZM329.344 92.875H330.344V91.875H329.344V92.875ZM302.684 92.875H301.684V93.875H302.684V92.875ZM302.684 71.293V70.293H301.684V71.293H302.684ZM358.641 71.293H359.641V70.293H358.641V71.293ZM357.873 127.39C352.737 133.541 345.445 138.368 335.935 141.838L336.62 143.717C346.381 140.156 353.998 135.152 359.409 128.672L357.873 127.39ZM335.941 141.836C326.428 145.242 315.867 146.953 304.246 146.953V148.953C316.064 148.953 326.857 147.213 336.615 143.719L335.941 141.836ZM304.246 146.953C292.09 146.953 281.459 144.317 272.322 139.078L271.327 140.813C280.809 146.25 291.793 148.953 304.246 148.953V146.953ZM272.329 139.082C263.264 133.783 256.233 126.122 251.236 116.063L249.445 116.953C254.603 127.337 261.896 135.3 271.32 140.809L272.329 139.082ZM251.238 116.067C246.303 106.006 243.754 94.1471 243.625 80.4632L241.625 80.4821C241.757 94.4024 244.351 106.567 249.442 116.948L251.238 116.067ZM243.625 80.4727V70.8047H241.625V80.4727H243.625ZM243.625 70.8047C243.625 56.7215 245.983 44.5981 250.663 34.4055L248.845 33.571C244.02 44.0816 241.625 56.5024 241.625 70.8047H243.625ZM250.662 34.4081C255.404 24.1543 262.178 16.3706 270.977 11.0144L269.937 9.30596C260.768 14.8873 253.74 22.9889 248.847 33.5685L250.662 34.4081ZM270.979 11.0133C279.85 5.58848 290.244 2.85938 302.196 2.85938V0.859375C289.929 0.859375 279.163 3.66412 269.936 9.30703L270.979 11.0133ZM302.196 2.85938C318.904 2.85938 331.83 6.85826 341.099 14.7309L342.394 13.2066C332.653 4.9334 319.211 0.859375 302.196 0.859375V2.85938ZM341.102 14.7335C350.367 22.539 355.911 33.9651 357.647 49.141L359.634 48.9137C357.855 33.3604 352.136 21.4141 342.391 13.204L341.102 14.7335ZM358.641 48.0273H330.125V50.0273H358.641V48.0273ZM331.113 48.8694C329.788 40.5893 326.816 34.3738 322.077 30.3908L320.79 31.9217C325.036 35.4907 327.859 41.1893 329.138 49.1853L331.113 48.8694ZM322.083 30.3954C317.421 26.419 311.043 24.4922 303.075 24.4922V26.4922C310.731 26.4922 316.593 28.3414 320.785 31.9171L322.083 30.3954ZM303.075 24.4922C292.822 24.4922 284.914 28.3681 279.5 36.1516L281.142 37.2937C286.144 30.1033 293.406 26.4922 303.075 26.4922V24.4922ZM279.5 36.1516C274.124 43.8792 271.476 55.2501 271.41 70.1167L273.41 70.1255C273.475 55.4348 276.101 44.5401 281.142 37.2937L279.5 36.1516ZM271.41 70.1211V79.2031H273.41V70.1211H271.41ZM271.41 79.2031C271.41 94.2126 274.257 105.726 280.104 113.589L281.709 112.395C276.228 105.024 273.41 94.0114 273.41 79.2031H271.41ZM280.104 113.589C285.987 121.501 294.61 125.418 305.809 125.418V123.418C295.133 123.418 287.154 119.718 281.709 112.395L280.104 113.589ZM305.809 125.418C316.911 125.418 325.085 123.06 330.051 118.094L328.637 116.68C324.228 121.088 316.712 123.418 305.809 123.418V125.418ZM330.344 117.387V92.875H328.344V117.387H330.344ZM329.344 91.875H302.684V93.875H329.344V91.875ZM303.684 92.875V71.293H301.684V92.875H303.684ZM302.684 72.293H358.641V70.293H302.684V72.293ZM357.641 71.293V128.031H359.641V71.293H357.641ZM568.016 84.3789V85.3789H569.016V84.3789H568.016ZM511.766 84.3789V83.3789H510.766V84.3789H511.766ZM511.766 122.465H510.766V123.465H511.766V122.465ZM577.782 122.465H578.782V121.465H577.782V122.465ZM577.782 146V147H578.782V146H577.782ZM482.469 146H481.469V147H482.469V146ZM482.469 3.8125V2.8125H481.469V3.8125H482.469ZM577.586 3.8125H578.586V2.8125H577.586V3.8125ZM577.586 27.543V28.543H578.586V27.543H577.586ZM511.766 27.543V26.543H510.766V27.543H511.766ZM511.766 61.4297H510.766V62.4297H511.766V61.4297ZM568.016 61.4297H569.016V60.4297H568.016V61.4297ZM568.016 83.3789H511.766V85.3789H568.016V83.3789ZM510.766 84.3789V122.465H512.766V84.3789H510.766ZM511.766 123.465H577.782V121.465H511.766V123.465ZM576.782 122.465V146H578.782V122.465H576.782ZM577.782 145H482.469V147H577.782V145ZM483.469 146V3.8125H481.469V146H483.469ZM482.469 4.8125H577.586V2.8125H482.469V4.8125ZM576.586 3.8125V27.543H578.586V3.8125H576.586ZM577.586 26.543H511.766V28.543H577.586V26.543ZM510.766 27.543V61.4297H512.766V27.543H510.766ZM511.766 62.4297H568.016V60.4297H511.766V62.4297ZM567.016 61.4297V84.3789H569.016V61.4297H567.016ZM810.594 146V147H811.594V146H810.594ZM781.297 146L780.443 146.521L780.736 147H781.297V146ZM724.266 52.4453L725.12 51.9248L723.266 48.8837V52.4453H724.266ZM724.266 146V147H725.266V146H724.266ZM694.969 146H693.969V147H694.969V146ZM694.969 3.8125V2.8125H693.969V3.8125H694.969ZM724.266 3.8125L725.12 3.29213L724.828 2.8125H724.266V3.8125ZM781.395 97.5625L780.541 98.0829L782.395 101.125V97.5625H781.395ZM781.395 3.8125V2.8125H780.395V3.8125H781.395ZM810.594 3.8125H811.594V2.8125H810.594V3.8125ZM810.594 145H781.297V147H810.594V145ZM782.151 145.479L725.12 51.9248L723.412 52.9658L780.443 146.521L782.151 145.479ZM723.266 52.4453V146H725.266V52.4453H723.266ZM724.266 145H694.969V147H724.266V145ZM695.969 146V3.8125H693.969V146H695.969ZM694.969 4.8125H724.266V2.8125H694.969V4.8125ZM723.412 4.33287L780.541 98.0829L782.249 97.0421L725.12 3.29213L723.412 4.33287ZM782.395 97.5625V3.8125H780.395V97.5625H782.395ZM781.395 4.8125H810.594V2.8125H781.395V4.8125ZM809.594 3.8125V146H811.594V3.8125H809.594ZM1047.8 98.6367L1048.8 98.7089L1048.88 97.6367H1047.8V98.6367ZM1030.81 134.77L1030.16 134.011L1030.15 134.013L1030.81 134.77ZM947.508 129.594L946.745 130.24L946.749 130.244L947.508 129.594ZM939.11 34.1836L938.202 33.7638L939.11 34.1836ZM959.715 10.2578L960.242 11.1076L960.244 11.1065L959.715 10.2578ZM1030.61 15.043L1029.95 15.7949L1030.61 15.043ZM1048 52.0547V53.0547H1049.1L1048.99 51.9568L1048 52.0547ZM1018.7 52.0547L1017.7 52.1325L1017.77 53.0547H1018.7V52.0547ZM1010.98 32.1328L1010.29 32.8559L1010.3 32.8612L1010.31 32.8664L1010.98 32.1328ZM968.992 36.4297L968.171 35.8593L968.17 35.8609L968.992 36.4297ZM961.571 68.9492L960.571 68.9404V68.9492H961.571ZM968.504 113.383L967.666 113.929L967.67 113.934L968.504 113.383ZM1010.79 117.875L1011.47 118.609L1011.47 118.608L1010.79 117.875ZM1018.5 98.6367V97.6367H1017.58L1017.51 98.5617L1018.5 98.6367ZM1046.8 98.5646C1045.71 113.638 1040.15 125.42 1030.16 134.011L1031.46 135.528C1041.91 126.541 1047.68 114.234 1048.8 98.7089L1046.8 98.5646ZM1030.15 134.013C1020.22 142.61 1007.06 146.953 990.575 146.953V148.953C1007.42 148.953 1021.08 144.507 1031.46 135.526L1030.15 134.013ZM990.575 146.953C972.595 146.953 958.533 140.93 948.268 128.943L946.749 130.244C957.447 142.736 972.096 148.953 990.575 148.953V146.953ZM948.271 128.948C938.052 116.876 932.883 100.269 932.883 79.0078H930.883C930.883 100.585 936.131 117.703 946.745 130.24L948.271 128.948ZM932.883 79.0078V70.3164H930.883V79.0078H932.883ZM932.883 70.3164C932.883 56.7621 935.271 44.8657 940.017 34.6034L938.202 33.7638C933.313 44.3348 930.883 56.5269 930.883 70.3164H932.883ZM940.017 34.6034C944.761 24.3469 951.505 16.5288 960.242 11.1075L959.188 9.40808C950.087 15.0546 943.094 23.187 938.202 33.7638L940.017 34.6034ZM960.244 11.1065C969.051 5.61791 979.28 2.85938 990.965 2.85938V0.859375C978.952 0.859375 968.348 3.6998 959.186 9.40912L960.244 11.1065ZM990.965 2.85938C1007.19 2.85938 1020.15 7.20036 1029.95 15.7949L1031.27 14.291C1021.02 5.30745 1007.56 0.859375 990.965 0.859375V2.85938ZM1029.95 15.7949C1039.75 24.3846 1045.46 36.4671 1047 52.1526L1048.99 51.9568C1047.41 35.8715 1041.53 23.2795 1031.27 14.291L1029.95 15.7949ZM1048 51.0547H1018.7V53.0547H1048V51.0547ZM1019.7 51.9769C1018.97 42.6744 1016.35 35.7425 1011.66 31.3993L1010.31 32.8664C1014.47 36.7263 1017 43.0756 1017.7 52.1325L1019.7 51.9769ZM1011.68 31.4097C1007.05 26.995 1000.08 24.8828 990.965 24.8828V26.8828C999.816 26.8828 1006.19 28.9373 1010.29 32.8559L1011.68 31.4097ZM990.965 24.8828C980.925 24.8828 973.269 28.5178 968.171 35.8593L969.814 37.0001C974.481 30.279 981.474 26.8828 990.965 26.8828V24.8828ZM968.17 35.8609C963.182 43.0736 960.701 54.1571 960.571 68.9404L962.571 68.9581C962.7 54.3142 965.168 43.7181 969.815 36.9985L968.17 35.8609ZM960.571 68.9492V79.6914H962.571V68.9492H960.571ZM960.571 79.6914C960.571 95.1135 962.883 106.585 967.666 113.929L969.342 112.837C964.881 105.988 962.571 94.9985 962.571 79.6914H960.571ZM967.67 113.934C972.578 121.364 980.282 125.027 990.575 125.027V123.027C980.815 123.027 973.806 119.594 969.339 112.832L967.67 113.934ZM990.575 125.027C999.753 125.027 1006.78 122.95 1011.47 118.609L1010.11 117.141C1005.94 121.003 999.495 123.027 990.575 123.027V125.027ZM1011.47 118.608C1016.21 114.21 1018.84 107.517 1019.5 98.7117L1017.51 98.5617C1016.87 107.074 1014.35 113.207 1010.11 117.142L1011.47 118.608ZM1018.5 99.6367H1047.8V97.6367H1018.5V99.6367ZM1216.06 67.875L1215.15 68.292L1216.06 70.2663L1216.97 68.2943L1216.06 67.875ZM1245.65 3.8125V2.8125H1245.01L1244.74 3.39318L1245.65 3.8125ZM1277.68 3.8125L1278.57 4.27041L1279.32 2.8125H1277.68V3.8125ZM1231 94.4375L1230.12 93.9796L1230 94.1951V94.4375H1231ZM1231 146V147H1232V146H1231ZM1201.22 146H1200.22V147H1201.22V146ZM1201.22 94.4375H1202.22V94.1951L1202.11 93.9796L1201.22 94.4375ZM1154.54 3.8125V2.8125H1152.9L1153.65 4.27041L1154.54 3.8125ZM1186.67 3.8125L1187.58 3.39546L1187.31 2.8125H1186.67V3.8125ZM1216.97 68.2943L1246.56 4.23182L1244.74 3.39318L1215.15 67.4557L1216.97 68.2943ZM1245.65 4.8125H1277.68V2.8125H1245.65V4.8125ZM1276.79 3.35459L1230.12 93.9796L1231.89 94.8954L1278.57 4.27041L1276.79 3.35459ZM1230 94.4375V146H1232V94.4375H1230ZM1231 145H1201.22V147H1231V145ZM1202.22 146V94.4375H1200.22V146H1202.22ZM1202.11 93.9796L1155.43 3.35459L1153.65 4.27041L1200.33 94.8954L1202.11 93.9796ZM1154.54 4.8125H1186.67V2.8125H1154.54V4.8125ZM1185.76 4.22954L1215.15 68.292L1216.97 67.458L1187.58 3.39546L1185.76 4.22954Z" fill="white" fill-opacity="0.1"/>
</svg>
